<svg viewBox="0 0 32 32" xmlns="http://www.w3.org/2000/svg"><g stroke-linecap="round" stroke-linejoin="round" stroke-width="2" stroke="currentColor" fill="none"><path data-cap="round" d="M8.373,23.627a27.659,27.659,0,0,1-6.958-6.445,1.938,1.938,0,0,1-.008-2.37C3.428,12.162,8.892,6,16.006,6a14.545,14.545,0,0,1,7.626,2.368" stroke-miterlimit="10" stroke-linecap="round"></path><path d="M27,10.923a30.256,30.256,0,0,1,3.591,3.887,1.937,1.937,0,0,1,0,2.38C28.542,19.842,23.026,26,16.006,26A12.843,12.843,0,0,1,12,25.341" stroke-miterlimit="10"></path><path data-cap="round" d="M11.764,20.243a6,6,0,0,1,8.482-8.489" stroke-miterlimit="10" stroke-linecap="round"></path><path d="M21.923,15a6.005,6.005,0,0,1-5.917,7A6.061,6.061,0,0,1,15,21.916" stroke-miterlimit="10"></path><line x1="2" y1="30" x2="30" y2="2" fill="none" stroke-miterlimit="10"></line></g></svg>